<svg data-v-0dd9719b="" version="1.0" xmlns="http://www.w3.org/2000/svg" xmlns:xlink="http://www.w3.org/1999/xlink" width="100%" height="100%" viewBox="0 0 340.000000 250.000000" preserveAspectRatio="xMidYMid meet" color-interpolation-filters="sRGB" style="margin: auto;"> <rect data-v-0dd9719b="" x="0" y="0" width="100%" height="100%" fill="#fff" fill-opacity="1" class="background"></rect> <rect data-v-0dd9719b="" x="0" y="0" width="100%" height="100%" fill="url(#watermark)" fill-opacity="1" class="watermarklayer"></rect> <g data-v-0dd9719b="" fill="#333333" class="icon-text-wrapper icon-svg-group iconsvg" transform="translate(55.91576385498047,96.75141143798828)"><g class="iconsvg-imagesvg" transform="translate(0,0)"><g><rect fill="#333333" fill-opacity="0" stroke-width="2" x="0" y="0" width="60" height="56.497175141242934" class="image-rect"></rect> <svg x="0" y="0" width="60" height="56.497175141242934" filtersec="colorsb828653674" class="image-svg-svg primary" style="overflow: visible;"><svg xmlns="http://www.w3.org/2000/svg" viewBox="0.011540412902832031 -0.011770248413085938 101.97692108154297 96.02354431152344"><g><g><path d="M99.92 70.84l-17-31L68 12.64l-14.92 27.2a17 17 0 0 0 0 16.32L68 83.36l2.08 3.8c4.68 8.53 16.45 12.61 27.37 4.29 5.55-7.27 5.55-14.93 2.47-20.61z" fill="#6e50ff"></path><path d="M48.92 39.84L34 12.64l-14.92 27.2-17 31C-1 76.52-1 84.18 4.55 91.45c10.92 8.32 22.69 4.24 27.37-4.29l2.08-3.8 14.92-27.2a17 17 0 0 0 0-16.32z" fill="#ffe600"></path><path d="M82.92 39.84L68 12.64l-2.32 4.22L68 12.64l-2.08-3.8a17 17 0 0 0-29.84 0L34 12.64l4.36 7.94L34 12.64l-14.92 27.2a17 17 0 0 0 0 16.32L34 83.36l2.08 3.8a17 17 0 0 0 29.84 0l2.08-3.8 14.92-27.2a17 17 0 0 0 0-16.32zm-40.85 28.8l-2.79 5.09z" fill="#af82ff" opacity=".8"></path></g></g></svg></svg> <!----></g></g> <g transform="translate(67,12.0535888671875)"><g data-gra="path-name" fill-rule="" class="tp-name iconsvg-namesvg"><g transform="scale(1)"><g><path d="M35.23-1.75L35.19-21.91C35.19-22.5 35.5-22.81 36.09-22.81L38.16-22.81C39.02-22.81 39.51-23.31 39.51-24.16L39.51-26.14C39.51-27 39.02-27.49 38.16-27.49L36.13-27.49C35.55-27.49 35.23-27.81 35.23-28.39L35.23-30.55C35.23-31.41 34.74-31.9 33.88-31.9L27.09-31.9C26.01-31.9 25.61-31.18 26.19-30.29L26.55-29.7C26.77-29.29 26.86-29.02 26.86-28.62L26.86-28.35C26.86-27.81 26.55-27.49 25.96-27.49L15.57-27.49C14.98-27.49 14.67-27.81 14.67-28.39L14.67-30.55C14.67-31.41 14.17-31.9 13.32-31.9L6.75-31.9C5.67-31.9 5.26-31.18 5.85-30.29L6.21-29.7C6.43-29.29 6.52-29.02 6.52-28.62L6.52-28.35C6.52-27.81 6.21-27.49 5.63-27.49L3.28-27.49C2.43-27.49 1.93-27 1.93-26.14L1.93-24.16C1.93-23.31 2.43-22.81 3.28-22.81L5.58-22.81C6.17-22.81 6.48-22.5 6.48-21.91L6.52-1.75C6.52-0.85 7.02-0.4 7.88-0.4L33.88-0.4C34.74-0.4 35.23-0.9 35.23-1.75ZM14.67-5.67L14.63-11.29C14.63-11.88 14.94-12.2 15.52-12.2L25.92-12.2C26.5-12.2 26.82-11.88 26.82-11.29L26.86-5.67C26.86-5.08 26.55-4.77 25.96-4.77L15.57-4.77C14.98-4.77 14.67-5.08 14.67-5.67ZM15.52-22.81L25.96-22.81C26.55-22.81 26.86-22.5 26.86-21.91L26.86-17.46C26.86-16.88 26.55-16.56 25.96-16.56L15.57-16.56C14.98-16.56 14.67-16.88 14.67-17.46L14.63-21.91C14.63-22.5 14.94-22.81 15.52-22.81ZM43.34-23.45L43.34-22.23C43.34-21.38 43.83-20.88 44.68-20.88L57.38-20.88C57.96-20.88 58.27-20.65 58.27-20.29 58.27-19.93 57.96-19.66 57.38-19.66L46.26-19.66C45.41-19.66 44.91-19.17 44.91-18.31L44.91-17.1C44.91-16.25 45.41-15.75 46.26-15.75L57.38-15.75C57.96-15.75 58.27-15.43 58.27-14.85L58.27-1.08C58.27-0.22 58.77 0.27 59.63 0.27L64.62 0.27C65.47 0.27 65.97-0.22 65.97-1.08L65.97-14.85C65.97-15.43 66.28-15.75 66.87-15.75L77.76-15.75C78.61-15.75 79.11-16.25 79.11-17.1L79.11-19.98C79.11-20.56 79.42-20.88 80.01-20.88L80.01-20.88C80.59-20.88 80.91-21.38 80.91-22.23L80.91-23.45C80.91-24.3 80.41-24.79 79.56-24.79 79.29-24.79 79.11-25.11 79.11-25.7L79.11-28.93C79.11-29.79 78.61-30.29 77.76-30.29L66.91-30.29C66.33-30.29 66.02-30.6 66.02-31.14 66.02-31.68 65.52-31.99 64.66-31.99L59.35-31.99C58.41-31.99 57.83-31.63 57.87-31.23 57.96-30.78 58.27-30.64 58.27-30.51 58.27-30.38 57.96-30.29 57.38-30.29L46.26-30.29C45.41-30.29 44.91-29.79 44.91-28.93L44.91-27.77C44.91-26.91 45.41-26.41 46.26-26.41L57.38-26.41C57.96-26.41 58.27-26.1 58.27-25.61 58.27-25.11 57.96-24.79 57.38-24.79L44.68-24.79C43.83-24.79 43.34-24.3 43.34-23.45ZM74.92-13.59L74.88-1.03C74.88-0.18 75.38 0.32 76.23 0.32L79.52 0.32C80.37 0.32 80.86-0.14 80.86-1.03L80.91-13.59C80.91-14.45 80.41-14.94 79.56-14.94L76.28-14.94C75.42-14.94 74.92-14.49 74.92-13.59ZM44.05-13.59L44.1-4.37C44.1-3.96 44.1-3.65 44.01-3.28L43.56-1.17C43.38-0.27 43.83 0.32 44.77 0.32L48.06 0.32C48.87 0.32 49.32-0.14 49.5-0.9L49.95-3.01C50.09-3.65 50.09-4 50.09-4.63L50.04-13.59C50.04-14.49 49.55-14.94 48.69-14.94L45.41-14.94C44.55-14.94 44.05-14.45 44.05-13.59ZM52.06-12.73L51.39-1.8C51.34-0.94 51.8-0.4 52.7-0.4L54.77-0.4C55.62-0.4 56.11-0.85 56.16-1.71L56.83-12.64C56.88-13.5 56.43-14.04 55.53-14.04L53.46-14.04C52.6-14.04 52.11-13.59 52.06-12.73ZM67.36-12.64L68.04-1.67C68.08-0.81 68.58-0.36 69.44-0.36L71.41-0.36C72.31-0.36 72.77-0.9 72.72-1.75L72.05-12.73C72-13.59 71.5-14.04 70.65-14.04L68.67-14.04C67.77-14.04 67.32-13.5 67.36-12.64ZM71.41-25.61C71.41-25.06 71.1-24.79 70.52-24.79L65.56-24.79C64.98-24.79 64.66-25.11 64.66-25.61 64.66-26.1 64.98-26.41 65.56-26.41L70.52-26.41C71.1-26.41 71.41-26.1 71.41-25.61ZM64.66-20.29C64.66-20.65 64.98-20.88 65.56-20.88L70.52-20.88C71.1-20.88 71.41-20.65 71.41-20.29 71.41-19.93 71.1-19.66 70.52-19.66L65.56-19.66C64.98-19.66 64.66-19.93 64.66-20.29ZM121.81-15.75L121.81-17.37C121.81-18.22 121.32-18.72 120.47-18.72L118.94-18.72C118.53-18.72 118.17-18.77 117.81-18.99L116.41-19.75C115.78-20.11 115.78-20.65 116.41-21.02L120.01-22.95C120.64-23.31 120.96-23.8 120.96-24.52L120.96-28.53C120.96-29.38 120.47-29.88 119.61-29.88L107.55-29.88C106.88-29.88 106.6-30.29 106.83-30.91 107.05-31.54 106.56-31.9 105.57-31.9L100.08-31.9C98.95-31.9 98.59-31.14 99.31-30.24 99.45-30.11 99.41-29.83 99.18-29.34L96.3-23.31C95.85-22.36 96.25-21.73 97.29-21.73L101.34-21.73C101.75-21.73 102.06-21.64 102.42-21.42L102.82-21.2C103.32-20.88 103.19-20.38 102.55-20.07L100.39-18.99C100.03-18.81 99.67-18.72 99.27-18.72L98.05-18.72C97.2-18.72 96.7-18.22 96.7-17.37L96.7-15.75C96.7-14.89 97.2-14.4 98.05-14.4L103-14.4C103.63-14.4 104.13-14.49 104.67-14.8L108.81-17.01C109.22-17.23 109.66-17.23 110.07-16.96L113.67-14.85C114.25-14.49 114.7-14.4 115.33-14.4L120.47-14.4C121.32-14.4 121.81-14.89 121.81-15.75ZM97.47-11.74L97.47-1.71C97.47-0.85 97.97-0.36 98.82-0.36L119.47-0.36C120.33-0.36 120.82-0.85 120.82-1.71L120.82-11.74C120.82-12.6 120.33-13.09 119.47-13.09L98.82-13.09C97.97-13.09 97.47-12.6 97.47-11.74ZM92.97-1.57L94.95-11.21C95.13-12.11 94.68-12.69 93.73-12.69L88.92-12.69C88.11-12.69 87.66-12.24 87.48-11.47L85.5-1.84C85.32-0.94 85.72-0.36 86.67-0.36L91.53-0.36C92.34-0.36 92.79-0.81 92.97-1.57ZM94.95-24.93L93.87-29.97C93.69-30.73 93.19-31.14 92.38-31.14L87.57-31.14C86.63-31.14 86.17-30.55 86.35-29.65L87.44-24.61C87.61-23.85 88.11-23.45 88.92-23.45L93.73-23.45C94.68-23.45 95.13-23.98 94.95-24.93ZM94.95-15.79L93.87-20.56C93.69-21.33 93.19-21.73 92.38-21.73L87.57-21.73C86.63-21.73 86.13-21.15 86.35-20.25L87.44-15.48C87.61-14.71 88.11-14.31 88.92-14.31L93.73-14.31C94.68-14.31 95.17-14.89 94.95-15.79ZM105.34-5.22L105.34-8.05C105.34-8.64 105.66-8.96 106.25-8.96L112.05-8.96C112.63-8.96 112.95-8.64 112.95-8.05L112.95-5.22C112.95-4.63 112.63-4.32 112.05-4.32L106.25-4.32C105.66-4.32 105.34-4.63 105.34-5.22ZM112.14-24.97L109.98-23.85C109.57-23.63 109.13-23.63 108.72-23.85L104.85-25.96 104.89-26.01C104.89-26.05 105.12-26.05 105.61-26.05L111.87-26.05C112.77-26.05 112.91-25.38 112.14-24.97ZM130.36-29.79L130.36-28.21C130.36-27.36 130.86-26.86 131.71-26.86L138.91-26.86C139.59-26.86 139.91-26.41 139.59-25.79L136.89-20.65C136.66-20.2 136.35-20.02 135.85-20.02L128.74-20.02C127.89-20.02 127.39-19.53 127.39-18.68L127.39-17.1C127.39-16.25 127.89-15.75 128.74-15.75L133.2-15.75C133.88-15.75 134.19-15.3 133.88-14.67L126.9-1.21C126.4-0.32 126.85 0.4 127.89 0.4L134.41 0.4C135.13 0.4 135.63 0.09 135.99-0.58L143.5-15.12C143.73-15.57 144.04-15.75 144.54-15.75L145.26-15.75C145.75-15.75 146.07-15.57 146.29-15.12L153.81-0.58C154.17 0.09 154.66 0.4 155.38 0.4L161.91 0.4C162.94 0.4 163.39-0.32 162.9-1.21L155.92-14.67C155.61-15.3 155.92-15.75 156.6-15.75L161.05-15.75C161.91-15.75 162.4-16.25 162.4-17.1L162.4-18.68C162.4-19.53 161.91-20.02 161.05-20.02L147.19-20.02C146.52-20.02 146.2-20.47 146.52-21.11L149.22-26.23C149.44-26.68 149.76-26.86 150.25-26.86L158.08-26.86C158.94-26.86 159.44-27.36 159.44-28.21L159.44-29.79C159.44-30.64 158.94-31.14 158.08-31.14L131.71-31.14C130.86-31.14 130.36-30.64 130.36-29.79Z" transform="translate(-1.9300000667572021, 31.989999771118164)"></path></g> <!----> <!----> <!----> <!----> <!----> <!----> <!----></g></g> <!----></g></g><defs v-gra="od"></defs></svg>